<svg width="256" height="256" viewBox="0 0 256 256" fill="none" xmlns="http://www.w3.org/2000/svg">
<g clip-path="url(#clip0)">
<path d="M240 80.1949C237.245 80.1994 234.52 80.777 232 81.8909V80.1949C232 78.0732 231.157 76.0384 229.657 74.5381C228.157 73.0378 226.122 72.1949 224 72.1949H220C218.407 72.2137 216.822 72.4259 215.28 72.8269C217.049 63.2362 215.724 53.3314 211.496 44.5429C208.242 37.8458 203.539 31.9565 197.728 27.3018C191.916 22.6471 185.142 19.3437 177.896 17.6309C170.293 15.6978 162.354 15.4802 154.656 16.9939C146.958 18.5076 139.693 21.7148 133.388 26.3829L128 30.3909L122.612 26.3909C116.305 21.72 109.037 18.511 101.337 16.9965C93.6356 15.4821 85.6942 15.7002 78.088 17.6349C70.8451 19.3493 64.0744 22.6536 58.2664 27.3082C52.4585 31.9629 47.7588 37.8514 44.508 44.5469C40.2754 53.3354 38.9488 63.2425 40.72 72.8349C39.178 72.4332 37.5933 72.2183 36 72.1949H32C29.8783 72.1949 27.8434 73.0378 26.3431 74.5381C24.8429 76.0384 24 78.0732 24 80.1949V81.8909C21.4798 80.777 18.7554 80.1994 16 80.1949C13.8783 80.1949 11.8434 81.0378 10.3431 82.5381C8.84286 84.0384 8 86.0732 8 88.1949V164.715C7.9985 167.783 8.88632 170.785 10.556 173.359L39.904 219.023C42.6711 223.349 47.0063 226.436 52 227.635V256.035H60V224.035C59.9822 223.448 59.8385 222.871 59.5787 222.344C59.3188 221.817 58.9489 221.352 58.4938 220.98C58.0387 220.609 57.5092 220.339 56.9409 220.19C56.3727 220.041 55.779 220.015 55.2 220.115C53.4643 219.897 51.7978 219.3 50.3185 218.366C48.8393 217.432 47.5834 216.184 46.64 214.711L17.28 169.023C16.4448 167.741 16.0001 166.245 16 164.715V140.195C20.2435 140.195 24.3131 141.881 27.3137 144.881C30.3143 147.882 32 151.951 32 156.195V168.195C32.0013 168.985 32.235 169.757 32.672 170.415L36.52 176.187C37.0447 176.975 37.8319 177.551 38.7415 177.813C39.6512 178.076 40.6244 178.007 41.488 177.619C43.5318 176.684 45.7525 176.198 48 176.195C52.2435 176.195 56.3131 177.881 59.3137 180.881C62.3143 183.882 64 187.951 64 192.195C64 193.256 64.4214 194.273 65.1716 195.023C65.9217 195.774 66.9391 196.195 68 196.195C69.0609 196.195 70.0783 195.774 70.8284 195.023C71.5786 194.273 72 193.256 72 192.195C71.9936 185.832 69.463 179.731 64.9636 175.231C60.4641 170.732 54.3633 168.201 48 168.195C45.7773 168.194 43.5658 168.509 41.432 169.131L40 166.983V156.183C40.0038 151.471 38.612 146.864 36 142.943V100.195C35.987 95.9077 34.5834 91.7404 32 88.3189V80.1949H36C38.9951 80.2081 41.8749 81.3508 44.064 83.3949C45.1211 85.7132 46.3624 87.9431 47.776 90.0629C47.9145 90.7654 47.9895 91.479 48 92.1949V144.035H56V99.6349L68 111.299V144.035H76V119.063L84 126.835V144.235C84.0017 145.025 84.2354 145.797 84.672 146.455L104.908 176.767C108.304 181.874 110.597 187.634 111.639 193.678C112.681 199.722 112.45 205.917 110.96 211.867C110.504 213.736 109.598 215.466 108.322 216.906C107.045 218.346 105.437 219.453 103.636 220.131C102.636 220.241 101.711 220.717 101.04 221.467C100.369 222.217 99.9989 223.189 100 224.195V256.035H108V226.987C110.65 225.713 112.985 223.87 114.838 221.588C116.692 219.305 118.017 216.642 118.72 213.787C120.481 206.757 120.755 199.436 119.523 192.294C118.291 185.152 115.582 178.345 111.568 172.311L92 143.023V134.623L125.2 166.907C125.947 167.633 126.947 168.039 127.988 168.039C129.029 168.039 130.029 167.633 130.776 166.907L164 134.619V143.019L144.424 172.339C140.413 178.372 137.705 185.177 136.475 192.317C135.245 199.457 135.519 206.775 137.28 213.803C137.983 216.658 139.308 219.321 141.162 221.604C143.015 223.886 145.35 225.729 148 227.003V256.035H156V224.035C155.999 223.044 155.623 222.091 154.947 221.366C154.272 220.641 153.348 220.199 152.36 220.127C150.559 219.449 148.951 218.343 147.676 216.902C146.4 215.462 145.495 213.732 145.04 211.863C143.55 205.916 143.319 199.724 144.359 193.683C145.4 187.642 147.69 181.884 151.084 176.779L171.328 146.435C171.761 145.768 171.995 144.99 172 144.195V126.835L180 119.055V148.035H188V111.287L200 99.6349V148.035H208V92.1949C208.021 91.458 208.108 90.7243 208.26 90.0029C209.66 87.9006 210.889 85.6896 211.936 83.3909C214.126 81.3483 217.005 80.207 220 80.1949H224V88.3189C221.417 91.7404 220.013 95.9077 220 100.195V142.955C217.388 146.876 215.996 151.483 216 156.195V166.995L214.568 169.143C212.435 168.517 210.223 168.198 208 168.195C201.637 168.201 195.536 170.732 191.036 175.231C186.537 179.731 184.006 185.832 184 192.195C184 193.256 184.421 194.273 185.172 195.023C185.922 195.774 186.939 196.195 188 196.195C189.061 196.195 190.078 195.774 190.828 195.023C191.579 194.273 192 193.256 192 192.195C192 187.951 193.686 183.882 196.686 180.881C199.687 177.881 203.757 176.195 208 176.195C210.248 176.198 212.468 176.684 214.512 177.619C215.376 178.007 216.349 178.076 217.258 177.813C218.168 177.551 218.955 176.975 219.48 176.187L223.328 170.415C223.765 169.757 223.999 168.985 224 168.195V156.195C224 151.951 225.686 147.882 228.686 144.881C231.687 141.881 235.757 140.195 240 140.195V164.715C239.999 166.248 239.553 167.747 238.716 169.031L209.344 214.727C208.401 216.196 207.148 217.44 205.671 218.371C204.195 219.302 202.532 219.897 200.8 220.115C200.221 220.016 199.628 220.042 199.06 220.191C198.492 220.341 197.962 220.611 197.508 220.982C197.053 221.354 196.683 221.818 196.423 222.345C196.163 222.872 196.018 223.448 196 224.035V256.035H204V227.635C208.989 226.437 213.32 223.354 216.084 219.031L245.44 173.367C247.112 170.791 248.001 167.786 248 164.715V88.1949C248 86.0732 247.157 84.0384 245.657 82.5381C244.157 81.0378 242.122 80.1949 240 80.1949ZM28 135.443C24.3578 133.318 20.2169 132.197 16 132.195V88.1949C19.1826 88.1949 22.2348 89.4592 24.4853 91.7097C26.7357 93.9601 28 97.0124 28 100.195V135.443ZM201.108 86.2789L201.056 86.3549C199.548 88.5371 197.833 90.5691 195.936 92.4229L128 158.435L60.064 92.4349C58.1668 90.5811 56.4522 88.5491 54.944 86.3669L54.892 86.2909C51.0088 80.764 48.6689 74.3018 48.1135 67.5699C47.5581 60.8379 48.8071 54.0796 51.732 47.9909C54.4776 42.365 58.4402 37.4202 63.3328 33.5148C68.2254 29.6095 73.9255 26.8413 80.02 25.4109C83.6767 24.4986 87.4312 24.0365 91.2 24.0349C100.789 24.0112 110.129 27.0835 117.832 32.7949L125.6 38.5869C126.29 39.1006 127.128 39.378 127.988 39.378C128.848 39.378 129.686 39.1006 130.376 38.5869L138.156 32.7989C143.518 28.8314 149.697 26.1087 156.243 24.8286C162.789 23.5486 169.538 23.7434 176 25.3989C182.095 26.8293 187.795 29.5975 192.687 33.5028C197.58 37.4082 201.542 42.353 204.288 47.9789C207.21 54.0694 208.456 60.8286 207.897 67.5606C207.338 74.2925 204.994 80.7538 201.108 86.2789ZM228 135.443V100.195C228 97.0124 229.264 93.9601 231.515 91.7097C233.765 89.4592 236.817 88.1949 240 88.1949V132.195C235.783 132.197 231.642 133.318 228 135.443Z" fill="#8819AE"/>
<path d="M98.2327 105.135C98.2327 104.369 97.5469 103.748 96.7019 103.748C95.8569 103.748 95.1711 104.369 95.1711 105.135V114.862C95.1711 115.627 95.1711 116.248 96.7019 116.248H126.554V119.514C126.554 120.279 127.24 120.9 128.085 120.9C128.93 120.9 129.616 120.279 129.616 119.514C129.616 117.727 129.616 116.638 129.616 116.248C129.616 115.912 140.6 115.912 162.568 116.248V113.476V105.135C162.568 104.369 161.882 103.748 161.037 103.748C160.192 103.748 159.506 104.369 159.506 105.135V113.476H98.2327V105.135ZM143.832 62.729C143.832 61.9636 143.146 61.343 142.301 61.343C141.456 61.343 140.771 61.9636 140.771 62.729V72.4561C140.771 73.2216 141.456 73.8422 142.301 73.8422H160.4V77.1082C160.4 77.8737 161.086 78.4943 161.931 78.4943C162.776 78.4943 163.462 77.8737 163.462 77.1082V73.8422H181.561C182.406 73.8422 183.092 73.2216 183.092 72.4561V62.729C183.092 61.9636 182.406 61.343 181.561 61.343C180.716 61.343 180.03 61.9636 180.03 62.729V71.0701H163.462H160.4H143.832V62.729ZM157.01 92.4538C155.465 93.3001 154.499 94.6245 154.499 96.0953C154.499 96.2984 154.517 96.5 154.554 96.6991L154.63 97.115H167.274L167.35 96.6991C167.387 96.5 167.405 96.2984 167.405 96.0953C167.405 94.5385 166.323 93.1495 164.628 92.3155C163.62 93.3572 162.262 93.9976 160.75 93.9976C159.305 93.9976 158.002 93.4136 157.01 92.4538ZM160.75 93.0028C163.263 93.0028 165.329 90.6581 165.329 87.7221C165.329 84.7861 163.263 82.4415 160.75 82.4415C158.236 82.4415 156.17 84.7861 156.17 87.7221C156.17 90.6581 158.236 93.0028 160.75 93.0028ZM177.605 52.4124C176.06 53.2587 175.094 54.583 175.094 56.0539C175.094 56.2569 175.112 56.4585 175.149 56.6577L175.225 57.0736H187.869L187.945 56.6577C187.982 56.4585 188 56.2569 188 56.0539C188 54.497 186.918 53.1081 185.223 52.274C184.215 53.3158 182.857 53.9561 181.345 53.9561C179.9 53.9561 178.597 53.3722 177.605 52.4124ZM181.345 52.9613C183.858 52.9613 185.924 50.6167 185.924 47.6807C185.924 44.7447 183.858 42.4 181.345 42.4C178.831 42.4 176.765 44.7447 176.765 47.6807C176.765 50.6167 178.831 52.9613 181.345 52.9613ZM136.415 52.4124C134.87 53.2587 133.904 54.583 133.904 56.0539C133.904 56.2569 133.922 56.4585 133.959 56.6577L134.035 57.0736H146.679L146.755 56.6577C146.792 56.4585 146.81 56.2569 146.81 56.0539C146.81 54.497 145.728 53.1081 144.033 52.274C143.025 53.3158 141.667 53.9561 140.155 53.9561C138.71 53.9561 137.407 53.3722 136.415 52.4124ZM140.155 52.9613C142.668 52.9613 144.734 50.6167 144.734 47.6807C144.734 44.7447 142.668 42.4 140.155 42.4C137.641 42.4 135.575 44.7447 135.575 47.6807C135.575 50.6167 137.641 52.9613 140.155 52.9613ZM77.9283 62.729C77.9283 61.9636 77.2424 61.343 76.3975 61.343C75.5525 61.343 74.8666 61.9636 74.8666 62.729V72.4561C74.8666 73.2216 75.5525 73.8422 76.3975 73.8422H94.4963V77.1082C94.4963 77.8737 95.1822 78.4943 96.0272 78.4943C96.8721 78.4943 97.558 77.8737 97.558 77.1082V73.8422H115.657C116.502 73.8422 117.188 73.2216 117.188 72.4561V62.729C117.188 61.9636 116.502 61.343 115.657 61.343C114.812 61.343 114.126 61.9636 114.126 62.729V71.0701H77.9283V62.729ZM91.1058 92.4538C89.5612 93.3001 88.595 94.6245 88.595 96.0953C88.595 96.2984 88.6134 96.5 88.6499 96.6991L88.7262 97.115H101.37L101.446 96.6991C101.483 96.5 101.501 96.2984 101.501 96.0953C101.501 94.5385 100.419 93.1495 98.7242 92.3155C97.7159 93.3572 96.3582 93.9976 94.8458 93.9976C93.4015 93.9976 92.0983 93.4136 91.1058 92.4538ZM94.8458 93.0028C97.3591 93.0028 99.4254 90.6581 99.4254 87.7221C99.4254 84.7861 97.3591 82.4415 94.8458 82.4415C92.3325 82.4415 90.2662 84.7861 90.2662 87.7221C90.2662 90.6581 92.3325 93.0028 94.8458 93.0028ZM111.701 52.4124C110.156 53.2587 109.19 54.583 109.19 56.0539C109.19 56.2569 109.208 56.4585 109.245 56.6577L109.321 57.0736H121.965L122.041 56.6577C122.078 56.4585 122.096 56.2569 122.096 56.0539C122.096 54.497 121.014 53.1081 119.319 52.274C118.311 53.3158 116.953 53.9561 115.441 53.9561C113.996 53.9561 112.693 53.3722 111.701 52.4124ZM115.441 52.9613C117.954 52.9613 120.02 50.6167 120.02 47.6807C120.02 44.7447 117.954 42.4 115.441 42.4C112.927 42.4 110.861 44.7447 110.861 47.6807C110.861 50.6167 112.927 52.9613 115.441 52.9613ZM70.5108 52.4124C68.9662 53.2587 68 54.583 68 56.0539C68 56.2569 68.0184 56.4585 68.055 56.6577L68.1312 57.0736H80.7749L80.8512 56.6577C80.8877 56.4585 80.9062 56.2569 80.9062 56.0539C80.9062 54.497 79.8241 53.1081 78.1292 52.274C77.121 53.3158 75.7632 53.9561 74.2508 53.9561C72.8065 53.9561 71.5033 53.3722 70.5108 52.4124ZM74.2508 52.9613C76.7641 52.9613 78.8304 50.6167 78.8304 47.6807C78.8304 44.7447 76.7641 42.4 74.2508 42.4C71.7375 42.4 69.6712 44.7447 69.6712 47.6807C69.6712 50.6167 71.7375 52.9613 74.2508 52.9613ZM124.213 134.533C122.669 135.379 121.703 136.704 121.703 138.174C121.703 138.377 121.721 138.579 121.757 138.778L121.834 139.194H134.477L134.554 138.778C134.59 138.579 134.609 138.377 134.609 138.174C134.609 136.617 133.527 135.229 131.832 134.394C130.823 135.436 129.466 136.077 127.953 136.077C126.509 136.077 125.206 135.493 124.213 134.533ZM127.953 135.082C130.467 135.082 132.533 132.737 132.533 129.801C132.533 126.865 130.467 124.52 127.953 124.52C125.44 124.52 123.374 126.865 123.374 129.801C123.374 132.737 125.44 135.082 127.953 135.082Z" fill="#8819AE"/>
</g>
<defs>
<clipPath id="clip0">
<rect width="256" height="256" fill="white"/>
</clipPath>
</defs>
</svg>
