<svg width="256" height="256" viewBox="0 0 256 256" fill="none" xmlns="http://www.w3.org/2000/svg">
<g clip-path="url(#clip0)">
<path d="M98.2327 105.135C98.2327 104.369 97.5469 103.748 96.7019 103.748C95.8569 103.748 95.1711 104.369 95.1711 105.135V114.862C95.1711 115.627 95.1711 116.248 96.7019 116.248H126.554V119.514C126.554 120.279 127.24 120.9 128.085 120.9C128.93 120.9 129.616 120.279 129.616 119.514C129.616 117.727 129.616 116.638 129.616 116.248C129.616 115.912 140.6 115.912 162.568 116.248V113.476V105.135C162.568 104.369 161.882 103.748 161.037 103.748C160.192 103.748 159.506 104.369 159.506 105.135V113.476H98.2327V105.135ZM143.832 62.729C143.832 61.9636 143.146 61.343 142.301 61.343C141.456 61.343 140.771 61.9636 140.771 62.729V72.4561C140.771 73.2216 141.456 73.8422 142.301 73.8422H160.4V77.1082C160.4 77.8737 161.086 78.4943 161.931 78.4943C162.776 78.4943 163.462 77.8737 163.462 77.1082V73.8422H181.561C182.406 73.8422 183.092 73.2216 183.092 72.4561V62.729C183.092 61.9636 182.406 61.343 181.561 61.343C180.716 61.343 180.03 61.9636 180.03 62.729V71.0701H163.462H160.4H143.832V62.729ZM157.01 92.4538C155.465 93.3001 154.499 94.6245 154.499 96.0953C154.499 96.2984 154.517 96.5 154.554 96.6991L154.63 97.115H167.274L167.35 96.6991C167.387 96.5 167.405 96.2984 167.405 96.0953C167.405 94.5385 166.323 93.1495 164.628 92.3155C163.62 93.3572 162.262 93.9976 160.75 93.9976C159.305 93.9976 158.002 93.4136 157.01 92.4538ZM160.75 93.0028C163.263 93.0028 165.329 90.6581 165.329 87.7221C165.329 84.7861 163.263 82.4415 160.75 82.4415C158.236 82.4415 156.17 84.7861 156.17 87.7221C156.17 90.6581 158.236 93.0028 160.75 93.0028ZM177.605 52.4124C176.06 53.2587 175.094 54.583 175.094 56.0539C175.094 56.2569 175.112 56.4585 175.149 56.6577L175.225 57.0736H187.869L187.945 56.6577C187.982 56.4585 188 56.2569 188 56.0539C188 54.497 186.918 53.1081 185.223 52.274C184.215 53.3158 182.857 53.9561 181.345 53.9561C179.9 53.9561 178.597 53.3722 177.605 52.4124ZM181.345 52.9613C183.858 52.9613 185.924 50.6167 185.924 47.6807C185.924 44.7447 183.858 42.4 181.345 42.4C178.831 42.4 176.765 44.7447 176.765 47.6807C176.765 50.6167 178.831 52.9613 181.345 52.9613ZM136.415 52.4124C134.87 53.2587 133.904 54.583 133.904 56.0539C133.904 56.2569 133.922 56.4585 133.959 56.6577L134.035 57.0736H146.679L146.755 56.6577C146.792 56.4585 146.81 56.2569 146.81 56.0539C146.81 54.497 145.728 53.1081 144.033 52.274C143.025 53.3158 141.667 53.9561 140.155 53.9561C138.71 53.9561 137.407 53.3722 136.415 52.4124ZM140.155 52.9613C142.668 52.9613 144.734 50.6167 144.734 47.6807C144.734 44.7447 142.668 42.4 140.155 42.4C137.641 42.4 135.575 44.7447 135.575 47.6807C135.575 50.6167 137.641 52.9613 140.155 52.9613ZM77.9283 62.729C77.9283 61.9636 77.2424 61.343 76.3975 61.343C75.5525 61.343 74.8666 61.9636 74.8666 62.729V72.4561C74.8666 73.2216 75.5525 73.8422 76.3975 73.8422H94.4963V77.1082C94.4963 77.8737 95.1822 78.4943 96.0272 78.4943C96.8721 78.4943 97.558 77.8737 97.558 77.1082V73.8422H115.657C116.502 73.8422 117.188 73.2216 117.188 72.4561V62.729C117.188 61.9636 116.502 61.343 115.657 61.343C114.812 61.343 114.126 61.9636 114.126 62.729V71.0701H77.9283V62.729ZM91.1058 92.4538C89.5612 93.3001 88.595 94.6245 88.595 96.0953C88.595 96.2984 88.6134 96.5 88.6499 96.6991L88.7262 97.115H101.37L101.446 96.6991C101.483 96.5 101.501 96.2984 101.501 96.0953C101.501 94.5385 100.419 93.1495 98.7242 92.3155C97.7159 93.3572 96.3582 93.9976 94.8458 93.9976C93.4015 93.9976 92.0983 93.4136 91.1058 92.4538ZM94.8458 93.0028C97.3591 93.0028 99.4254 90.6581 99.4254 87.7221C99.4254 84.7861 97.3591 82.4415 94.8458 82.4415C92.3325 82.4415 90.2662 84.7861 90.2662 87.7221C90.2662 90.6581 92.3325 93.0028 94.8458 93.0028ZM111.701 52.4124C110.156 53.2587 109.19 54.583 109.19 56.0539C109.19 56.2569 109.208 56.4585 109.245 56.6577L109.321 57.0736H121.965L122.041 56.6577C122.078 56.4585 122.096 56.2569 122.096 56.0539C122.096 54.497 121.014 53.1081 119.319 52.274C118.311 53.3158 116.953 53.9561 115.441 53.9561C113.996 53.9561 112.693 53.3722 111.701 52.4124ZM115.441 52.9613C117.954 52.9613 120.02 50.6167 120.02 47.6807C120.02 44.7447 117.954 42.4 115.441 42.4C112.927 42.4 110.861 44.7447 110.861 47.6807C110.861 50.6167 112.927 52.9613 115.441 52.9613ZM70.5108 52.4124C68.9662 53.2587 68 54.583 68 56.0539C68 56.2569 68.0184 56.4585 68.055 56.6577L68.1312 57.0736H80.7749L80.8512 56.6577C80.8877 56.4585 80.9062 56.2569 80.9062 56.0539C80.9062 54.497 79.8241 53.1081 78.1292 52.274C77.121 53.3158 75.7632 53.9561 74.2508 53.9561C72.8065 53.9561 71.5033 53.3722 70.5108 52.4124ZM74.2508 52.9613C76.7641 52.9613 78.8304 50.6167 78.8304 47.6807C78.8304 44.7447 76.7641 42.4 74.2508 42.4C71.7375 42.4 69.6712 44.7447 69.6712 47.6807C69.6712 50.6167 71.7375 52.9613 74.2508 52.9613ZM124.213 134.533C122.669 135.379 121.703 136.704 121.703 138.174C121.703 138.377 121.721 138.579 121.757 138.778L121.834 139.194H134.477L134.554 138.778C134.59 138.579 134.609 138.377 134.609 138.174C134.609 136.617 133.527 135.229 131.832 134.394C130.823 135.436 129.466 136.077 127.953 136.077C126.509 136.077 125.206 135.493 124.213 134.533ZM127.953 135.082C130.467 135.082 132.533 132.737 132.533 129.801C132.533 126.865 130.467 124.52 127.953 124.52C125.44 124.52 123.374 126.865 123.374 129.801C123.374 132.737 125.44 135.082 127.953 135.082Z" fill="#8819AE"/>
</g>
<defs>
<clipPath id="clip0">
<rect width="256" height="256" fill="white"/>
</clipPath>
</defs>
</svg>
